<?xml version="1.0" encoding="UTF-8"?>
<svg version="1.1" xmlns="http://www.w3.org/2000/svg" width="640" height="216">
<path d="M0 0 C211.2 0 422.4 0 640 0 C640 71.28 640 142.56 640 216 C428.8 216 217.6 216 0 216 C0 144.72 0 73.44 0 0 Z " fill="#FCFDFD" transform="translate(0,0)"/>
<path d="M0 0 C0.33872513 1.41538717 0.67074624 2.83237963 1 4.25 C1.185625 5.03890625 1.37125 5.8278125 1.5625 6.640625 C2 9 2 9 2 13 C-0.60258324 13.83857688 -3.20685647 14.67103344 -5.8125 15.5 C-6.55048828 15.73847656 -7.28847656 15.97695312 -8.04882812 16.22265625 C-11.13255196 17.19940136 -13.74495809 18 -17 18 C-14.12268612 27.81671793 -9.92089 38.33015597 -3 46 C-0.38181544 47.33298974 -0.38181544 47.33298974 2 48 C1.484375 47.2575 0.96875 46.515 0.4375 45.75 C-1 43 -1 43 0 39 C1.65 41.97 3.3 44.94 5 48 C8.465 41.565 8.465 41.565 12 35 C12.33 35.66 12.66 36.32 13 37 C12.649375 37.9075 12.29875 38.815 11.9375 39.75 C10.81974486 43.62488448 11.4398825 45.35972583 13 49 C11.68 47.68 10.36 46.36 9 45 C8.01 46.98 7.02 48.96 6 51 C4.68 50.67 3.36 50.34 2 50 C4.35723632 57.05962057 9.61288548 60.27620065 16.0625 63.55859375 C26.91556012 68.16331757 36.14430087 68.39513214 47.18359375 64.25 C61.63852346 57.83449722 69.21723995 45.16976538 75 31 C76.61973658 26.40716602 77.8747833 21.73775454 79 17 C78.41992188 16.87882812 77.83984375 16.75765625 77.2421875 16.6328125 C72.71971558 15.66264526 68.36249034 14.56602217 64 13 C64.51405169 8.03083364 65.23384882 3.70973649 67 -1 C76.16693792 0.36126298 84.97999778 2.79992619 93.88110352 5.31347656 C96.32363367 6.00314368 98.76804758 6.68576969 101.21289062 7.3671875 C102.78396708 7.80688842 104.3549346 8.24697881 105.92578125 8.6875 C106.64776199 8.88964111 107.36974274 9.09178223 108.11360168 9.30004883 C112.11400406 10.43102769 116.06747598 11.65183796 120 13 C119.40380045 17.86896303 118.43023178 22.32790951 117 27 C111.58609855 26.31697126 106.36322421 25.22293698 101.0625 23.9375 C100.28326172 23.75123047 99.50402344 23.56496094 98.70117188 23.37304688 C96.80010303 22.91818991 94.89995343 22.4594938 93 22 C92.83757812 23.48886719 92.83757812 23.48886719 92.671875 25.0078125 C92.07049019 29.19017047 90.76801331 32.94557901 89.25 36.875 C88.8468457 37.92880859 88.8468457 37.92880859 88.43554688 39.00390625 C85.0875593 47.56778936 80.73401936 54.8214205 75 62 C74.55011719 62.59683594 74.10023438 63.19367188 73.63671875 63.80859375 C67.52774698 71.53515242 59.14352355 76.57928463 50 80 C49.14148438 80.35707031 48.28296875 80.71414062 47.3984375 81.08203125 C34.28570643 84.62397585 19.01838496 82.8415808 7.19140625 76.4921875 C-12.37263155 64.82431475 -24.77059658 45.26295122 -32 24 C-36.08581757 24.61287264 -40.00092571 25.48492193 -43.97265625 26.59765625 C-46.34997692 27.06945592 -48.5824345 27.06284832 -51 27 C-51.50471197 25.23050388 -52.00360685 23.45934777 -52.5 21.6875 C-52.7784375 20.70136719 -53.056875 19.71523437 -53.34375 18.69921875 C-54 16 -54 16 -54 13 C-40.99110038 9.15934251 -27.96872064 5.39267822 -14.87060547 1.86669922 C-13.57920654 1.51889404 -13.57920654 1.51889404 -12.26171875 1.1640625 C-11.50850342 0.96248535 -10.75528809 0.7609082 -9.97924805 0.55322266 C-6.04268655 -0.54709168 -4.02551566 -0.97917949 0 0 Z " fill="#098198" transform="translate(268,59)"/>
<path d="M0 0 C5.24511325 4.27766017 8.27780594 8.28330877 9.12890625 15.19140625 C9.16290251 16.5477911 9.17267568 17.90496569 9.16015625 19.26171875 C9.15516113 19.96917236 9.15016602 20.67662598 9.14501953 21.40551758 C8.88199279 29.27364502 6.19854461 32.84833039 0.84765625 38.19921875 C-2.75472449 40.67144083 -6.17754649 42.13971471 -10.33984375 43.38671875 C-10.9225 43.57234375 -11.50515625 43.75796875 -12.10546875 43.94921875 C-23.1042281 46.10282198 -35.33257166 45.00561775 -44.71484375 38.69921875 C-49.78448387 34.60253987 -52.85816952 28.52223607 -53.61328125 22.0390625 C-53.88487178 14.77923865 -52.79674445 9.24948745 -48.33984375 3.38671875 C-35.86002996 -8.1726285 -14.11369615 -9.7311461 0 0 Z " fill="#090909" transform="translate(486.33984375,84.61328125)"/>
<path d="M0 0 C5.24695799 -0.07466663 10.49360043 -0.12884421 15.7409668 -0.16479492 C17.52259719 -0.17979643 19.30419119 -0.20020433 21.08569336 -0.22631836 C23.66008535 -0.26308509 26.2339853 -0.27981285 28.80859375 -0.29296875 C29.59334579 -0.30845261 30.37809784 -0.32393646 31.18663025 -0.33988953 C39.04073159 -0.34223088 46.22756607 1.40795463 52 7 C53.59453633 10.18907265 53.38561702 13.52944682 53 17 C50.86111111 21.56944444 50.86111111 21.56944444 48 23 C48.55429688 23.32613281 49.10859375 23.65226562 49.6796875 23.98828125 C50.40414062 24.42527344 51.12859375 24.86226562 51.875 25.3125 C52.59429687 25.74175781 53.31359375 26.17101562 54.0546875 26.61328125 C56 28 56 28 58 31 C58.45682942 35.03532656 58.23858236 37.47096954 56.5625 41.1875 C51.80807048 46.4057763 45.85330436 48.07725082 39 49 C36.03281346 49.12807105 33.07104274 49.11680852 30.1015625 49.09765625 C29.26660248 49.0962413 28.43164246 49.09482635 27.57138062 49.09336853 C24.92254958 49.08780174 22.2738052 49.07525547 19.625 49.0625 C17.82161581 49.0574807 16.01823029 49.05291855 14.21484375 49.04882812 C9.80983614 49.03869701 5.4050143 49.0191153 1 49 C1 39.1 1 29.2 1 19 C4.75503906 18.90912109 4.75503906 18.90912109 8.5859375 18.81640625 C11.00523956 18.75463238 13.42449409 18.69123827 15.84375 18.62768555 C17.52762642 18.58432183 19.21154723 18.5426478 20.89550781 18.50268555 C23.31328724 18.44501766 25.73084295 18.3813135 28.1484375 18.31640625 C28.9036972 18.29969376 29.65895691 18.28298126 30.43710327 18.26576233 C34.34739799 18.22444893 34.34739799 18.22444893 38 17 C38.25030977 14.58380177 38.25030977 14.58380177 38 12 C34.32031329 9.54687553 32.4533016 9.74736013 28.06640625 9.7265625 C26.68163252 9.70627497 25.29686695 9.68542421 23.91210938 9.6640625 C21.7352 9.64146057 19.55861314 9.62498956 17.3815918 9.61914062 C15.27594139 9.6096074 13.17173283 9.57582813 11.06640625 9.5390625 C9.80771729 9.53084473 8.54902832 9.52262695 7.25219727 9.51416016 C4 9 4 9 1.55834961 7.27880859 C-0.27114631 4.60349683 -0.35279903 3.17519128 0 0 Z " fill="#080808" transform="translate(106,75)"/>
<path d="M0 0 C4.53489627 -0.04986353 9.0696289 -0.08593637 13.60473633 -0.10986328 C15.14382715 -0.11985006 16.68289935 -0.13344419 18.22192383 -0.15087891 C41.10429816 -0.40339456 41.10429816 -0.40339456 50 7 C55.61993454 13.21958016 56.37988607 18.70829641 56.26953125 26.96484375 C55.61489935 34.33656815 51.83212383 38.63956289 46.48828125 43.45703125 C37.43676072 49.06982655 27.71083974 48.35668291 17.4375 48.1875 C15.84050741 48.17242639 14.24350106 48.15874272 12.64648438 48.14648438 C8.76370022 48.11626032 4.88285518 48.057508 1 48 C1 38.43 1 28.86 1 19 C5.62 19 10.24 19 15 19 C15 25.6 15 32.2 15 39 C17.68125 38.896875 20.3625 38.79375 23.125 38.6875 C23.95789551 38.66260498 24.79079102 38.63770996 25.64892578 38.61206055 C30.40395652 38.37890406 33.94760091 37.72364509 38 35 C41.19705364 31.12171763 41.40669162 27.8761115 41.375 22.9375 C41.38273438 21.72964844 41.39046875 20.52179688 41.3984375 19.27734375 C40.97005228 15.75366532 40.55462448 14.41517991 38 12 C34.02081689 10.02524457 30.72230923 9.74918283 26.30859375 9.7265625 C25.03435547 9.7059375 23.76011719 9.6853125 22.44726562 9.6640625 C20.43717838 9.64143026 18.42744538 9.62497084 16.41723633 9.61914062 C14.46419631 9.60961011 12.51133265 9.57465673 10.55859375 9.5390625 C9.39642334 9.53084473 8.23425293 9.52262695 7.03686523 9.51416016 C4 9 4 9 1.59008789 7.27880859 C-0.2778802 4.60176051 -0.35509244 3.19583198 0 0 Z " fill="#080808" transform="translate(501,80)"/>
<path d="M0 0 C3.96 0 7.92 0 12 0 C12 12.87 12 25.74 12 39 C24.30131978 38.94568667 24.30131978 38.94568667 36 35 C40.61218272 28.10634611 40.62027082 21.68826668 40.6875 13.5625 C40.72935812 11.2095664 40.77472866 8.8566917 40.82421875 6.50390625 C40.83541748 5.47080322 40.84661621 4.4377002 40.8581543 3.37329102 C41 1 41 1 42 0 C44.01964199 -0.07244053 46.04167124 -0.08377188 48.0625 -0.0625 C49.71958984 -0.04896484 49.71958984 -0.04896484 51.41015625 -0.03515625 C52.26480469 -0.02355469 53.11945313 -0.01195313 54 0 C54.12509012 3.94668939 54.21502442 7.89258657 54.2746582 11.84082031 C54.31169623 13.83179353 54.37528228 15.82221653 54.43945312 17.8125 C54.55777887 27.18389872 53.35191277 34.4063143 46.75 41.375 C35.30306759 48.13909642 24.5306029 49.31566091 11.375 49.125 C9.58255859 49.11146484 9.58255859 49.11146484 7.75390625 49.09765625 C4.83572166 49.07431077 1.91797224 49.04156656 -1 49 C-1.0252689 42.18238106 -1.04283244 35.36477411 -1.05493164 28.54711914 C-1.05997333 26.22582549 -1.06680651 23.90453503 -1.07543945 21.58325195 C-1.08751225 18.25471205 -1.09322979 14.92621398 -1.09765625 11.59765625 C-1.10281754 10.55287613 -1.10797882 9.50809601 -1.11329651 8.43165588 C-1.11337204 7.47073532 -1.11344757 6.50981476 -1.11352539 5.51977539 C-1.115746 4.66928116 -1.11796661 3.81878693 -1.12025452 2.94252014 C-1 1 -1 1 0 0 Z " fill="#090909" transform="translate(25,75)"/>
<path d="M0 0 C0.72680969 0.00141495 1.45361938 0.0028299 2.20245361 0.00428772 C4.51521994 0.00986833 6.82788812 0.02241721 9.140625 0.03515625 C10.71223818 0.04017376 12.28385289 0.04473623 13.85546875 0.04882812 C17.70055843 0.0598314 21.5455751 0.07708264 25.390625 0.09765625 C25.390625 3.06765625 25.390625 6.03765625 25.390625 9.09765625 C24.12786743 9.11953003 24.12786743 9.11953003 22.83959961 9.1418457 C19.6876981 9.20324779 16.53642039 9.27746356 13.38500977 9.36010742 C12.02639957 9.39316559 10.66765834 9.42125586 9.30883789 9.4440918 C-1.09102676 9.47446671 -1.09102676 9.47446671 -10.609375 13.09765625 C-13.49950663 16.17424798 -13.8295884 18.89248137 -13.984375 22.97265625 C-13.8129648 27.7649998 -13.12340091 30.99141392 -10.609375 35.09765625 C-6.16083932 37.86202789 -2.65400233 38.49841208 2.5390625 38.609375 C3.19645416 38.6273262 3.85384583 38.6452774 4.53115845 38.66377258 C6.60925072 38.71750062 8.68711847 38.7516475 10.765625 38.78515625 C12.18362476 38.81836278 13.60159501 38.85285549 15.01953125 38.88867188 C18.4763468 38.97320276 21.93324138 39.04019193 25.390625 39.09765625 C25.390625 42.06765625 25.390625 45.03765625 25.390625 48.09765625 C21.30130818 48.14766671 17.21211359 48.18365982 13.12255859 48.20751953 C11.73580824 48.21748228 10.34907835 48.23105743 8.96240234 48.24853516 C-13.95737352 48.52986092 -13.95737352 48.52986092 -22.609375 40.09765625 C-28.3413019 32.74903202 -28.62320839 25.22215677 -27.609375 16.09765625 C-25.099663 9.22322774 -20.18774959 5.6743149 -13.9765625 2.19140625 C-9.33094022 0.04491411 -5.06291494 -0.03726688 0 0 Z " fill="#040404" transform="translate(405.609375,79.90234375)"/>
<path d="M0 0 C14.85 0 29.7 0 45 0 C45 3.3 45 6.6 45 10 C34.77 10 24.54 10 14 10 C14 13.3 14 16.6 14 20 C24.23 20 34.46 20 45 20 C45 23.3 45 26.6 45 30 C30.15 30 15.3 30 0 30 C0 20.1 0 10.2 0 0 Z " fill="#0E0E0E" transform="translate(169,94)"/>
<path d="M0 0 C14.85 0 29.7 0 45 0 C45 2.97 45 5.94 45 9 C34.44 9 23.88 9 13 9 C13 12.63 13 16.26 13 20 C23.56 20 34.12 20 45 20 C45 22.97 45 25.94 45 29 C30.15 29 15.3 29 0 29 C0 19.43 0 9.86 0 0 Z " fill="#030303" transform="translate(563,99)"/>
<path d="M0 0 C0.79857422 -0.01611328 1.59714844 -0.03222656 2.41992188 -0.04882812 C7.12968307 -0.05273016 10.2871216 0.21250235 14.0625 3.3125 C16.79806721 6.04806721 17.9474575 7.58872865 18.55859375 11.43359375 C18.35165663 23.14623494 18.35165663 23.14623494 15.0625 27.3125 C10.02743305 30.50753484 5.83819068 30.80241963 0.0625 30.75 C-1.10925781 30.7799707 -1.10925781 30.7799707 -2.3046875 30.81054688 C-7.61149992 30.80607986 -10.83380563 29.97204452 -14.9375 26.3125 C-18.06761553 20.87550741 -17.56282824 14.38275952 -16.9375 8.3125 C-15.79446073 5.13084431 -14.14309131 3.16980938 -11.35546875 1.1875 C-7.61100235 -0.167525 -3.95052567 -0.01586556 0 0 Z " fill="#FAFAFA" transform="translate(463.9375,88.6875)"/>
<path d="M0 0 C4.29 0 8.58 0 13 0 C13 16.17 13 32.34 13 49 C8.71 49 4.42 49 0 49 C0 32.83 0 16.66 0 0 Z " fill="#050505" transform="translate(86,75)"/>
<path d="M0 0 C4.23953092 2.08664413 7.31485756 4.49516378 9 9 C9.046875 11.21875 9.046875 11.21875 8.75 13.5 C8.66234375 14.2528125 8.5746875 15.005625 8.484375 15.78125 C7.97595134 18.1101584 7.15218067 19.92229716 6 22 C6.66 22.99 7.32 23.98 8 25 C7.625 27.1875 7.625 27.1875 7 29 C5.35 28.67 3.7 28.34 2 28 C1.67 27.01 1.34 26.02 1 25 C0.34773438 25.05800781 -0.30453125 25.11601562 -0.9765625 25.17578125 C-9.00814332 25.59039088 -9.00814332 25.59039088 -12.5 22.75 C-15.80640712 19.11295217 -16.83222901 17.50993888 -17.375 12.625 C-16.83118059 7.368079 -14.76755969 4.47296641 -10.75 1.125 C-7.07915909 -0.37670765 -3.86108732 -0.78976786 0 0 Z " fill="#533114" transform="translate(264,145)"/>
<path d="M0 0 C2.5625 1.5 2.5625 1.5 4 3 C4.33 2.01 4.66 1.02 5 0 C5.66 0 6.32 0 7 0 C7.0871142 4.08319884 7.14043048 8.16615864 7.1875 12.25 C7.21263672 13.40886719 7.23777344 14.56773437 7.26367188 15.76171875 C7.27333984 16.87675781 7.28300781 17.99179688 7.29296875 19.140625 C7.3086792 20.16704102 7.32438965 21.19345703 7.34057617 22.25097656 C6.9475471 25.42338326 6.29394935 26.79011524 4 29 C0.3125 29.25 0.3125 29.25 -3 29 C-3 28.67 -3 28.34 -3 28 C-0.69 27.34 1.62 26.68 4 26 C4 23.36 4 20.72 4 18 C3.59394531 18.47566406 3.18789063 18.95132813 2.76953125 19.44140625 C-0.32828106 22.16994292 -3.99048772 22.23263382 -8 22 C-11.24288049 20.40804049 -13.20045028 19.05395191 -15.375 16.1875 C-16.31707395 12.89024117 -16.41260656 10.4187401 -16 7 C-11.92772808 0.21792632 -7.46683283 -0.79575483 0 0 Z " fill="#FAFAFA" transform="translate(448,147)"/>
<path d="M0 0 C6.24795675 -0.02527124 12.49590041 -0.04283344 18.74389648 -0.05493164 C20.87118014 -0.05997298 22.99846031 -0.06680591 25.12573242 -0.07543945 C28.17627826 -0.08751379 31.22677845 -0.09323014 34.27734375 -0.09765625 C35.71327126 -0.10539818 35.71327126 -0.10539818 37.1782074 -0.11329651 C38.49946373 -0.11340981 38.49946373 -0.11340981 39.84741211 -0.11352539 C40.62684677 -0.115746 41.40628143 -0.11796661 42.20933533 -0.12025452 C44 0 44 0 45 1 C45.07179964 2.51928038 45.08392007 4.04167482 45.0625 5.5625 C45.05347656 6.38878906 45.04445312 7.21507813 45.03515625 8.06640625 C45.02355469 8.70449219 45.01195312 9.34257813 45 10 C39.07351426 10.07409532 33.14729747 10.12857616 27.22045898 10.16479492 C25.20380966 10.17989179 23.18719321 10.20037115 21.1706543 10.22631836 C18.27384329 10.26266211 15.37746594 10.2797172 12.48046875 10.29296875 C11.57725388 10.30845261 10.674039 10.32393646 9.74345398 10.33988953 C8.4824865 10.34022942 8.4824865 10.34022942 7.19604492 10.34057617 C6.45658127 10.34723801 5.71711761 10.35389984 4.95524597 10.36076355 C2.40009939 9.889312 1.52232504 9.08243506 0 7 C-0.1875 3.3125 -0.1875 3.3125 0 0 Z " fill="#0F1010" transform="translate(169,75)"/>
<path d="M0 0 C3.01794747 2.11256323 4.77465392 4.52818611 6 8 C6.52599303 12.83913587 5.63330294 15.91384027 3 20 C-0.38669726 22.90288337 -3.53268079 23.58198247 -8 23.4296875 C-11.61068185 22.65395507 -13.45265225 20.60947818 -16 18 C-17.85726616 14.28546768 -17.58501089 10.04420575 -17 6 C-12.17242699 -0.22502835 -7.53849345 -0.89046929 0 0 Z " fill="#F9A74B" transform="translate(260,20)"/>
<path d="M0 0 C0.33 0 0.66 0 1 0 C1 9.9 1 19.8 1 30 C0.34 28.68 -0.32 27.36 -1 26 C-1.680625 26.66 -2.36125 27.32 -3.0625 28 C-6.73616939 30.50122172 -8.63083745 30.54614532 -13 30 C-16.62342508 28.3529886 -19.16816086 26.5672657 -21 23 C-21.73752858 18.00119521 -21.57453049 15.12480842 -18.5625 11 C-15.94748438 8.27317849 -14.14358505 7.53093599 -10.375 7.4375 C-7.11833081 7.6146171 -4.84211259 8.41176061 -2 10 C-1.90912109 9.04287109 -1.90912109 9.04287109 -1.81640625 8.06640625 C-1.73261719 7.24011719 -1.64882813 6.41382813 -1.5625 5.5625 C-1.48128906 4.73878906 -1.40007812 3.91507813 -1.31640625 3.06640625 C-1 1 -1 1 0 0 Z " fill="#C6C6C6" transform="translate(388,139)"/>
<path d="M0 0 C2.87029869 1.79393668 4.49131638 2.98263276 6 6 C6.52137294 10.82911 6.73402673 14.74166846 4.25 19 C1.55526489 21.3953201 -0.54014853 22.87464603 -4.18359375 23.1875 C-8.50821206 22.82773972 -10.57945882 22.33471645 -14.0625 19.5625 C-16.50553781 16.03839668 -16.70245924 12.5447793 -16.5 8.34375 C-15.73421779 4.75414588 -13.88588695 3.13005942 -11 1 C-7.54260443 -0.72869779 -3.78024432 -0.48966895 0 0 Z " fill="#FAA84C" transform="translate(348,20)"/>
<path d="M0 0 C14.85 0 29.7 0 45 0 C45 2.97 45 5.94 45 9 C38.91277254 9.04934154 32.8256608 9.08569167 26.73828125 9.10986328 C24.66632053 9.11993712 22.59437407 9.13359666 20.52246094 9.15087891 C17.54879236 9.17506664 14.5753113 9.18646908 11.6015625 9.1953125 C10.20618759 9.21079636 10.20618759 9.21079636 8.78262329 9.22659302 C7.92188202 9.22674408 7.06114075 9.22689514 6.17431641 9.22705078 C5.41486725 9.231492 4.65541809 9.23593323 3.87295532 9.24050903 C2 9 2 9 0 7 C0 4.69 0 2.38 0 0 Z " fill="#030303" transform="translate(563,80)"/>
<path d="M0 0 C3.4290034 2.04281054 5.9158558 4.09708087 7 8 C7.06558455 12.06624223 7.0674296 14.57475597 4.61328125 17.8515625 C1.55593509 20.75088853 -0.40186883 21.90718654 -4.625 22.5625 C-8.26558063 21.95573656 -10.16921982 21.35898348 -13 19 C-15.34483893 15.5609029 -16.01080781 13.6160449 -15.9375 9.4375 C-14.91869576 5.70188446 -13.67878703 3.7599624 -11 1 C-7.53749757 -0.73125121 -3.78591771 -0.47815224 0 0 Z " fill="#CFCFCF" transform="translate(357,147)"/>
<path d="M0 0 C3.87542277 -0.0811135 7.74913882 -0.1405605 11.625 -0.1875 C13.26662109 -0.22520508 13.26662109 -0.22520508 14.94140625 -0.26367188 C20.79681683 -0.31690288 25.06324498 -0.29983099 30 3 C30 4.65 30 6.3 30 8 C24.18575788 11.88636184 18.42763077 11.34374417 11.625 11.1875 C9.94857422 11.16719727 9.94857422 11.16719727 8.23828125 11.14648438 C5.49197912 11.11127537 2.74592643 11.05747288 0 11 C0 7.37 0 3.74 0 0 Z " fill="#F7F7F7" transform="translate(120,104)"/>
<path d="M0 0 C4.23953092 2.08664413 7.31485756 4.49516378 9 9 C9.046875 11.21875 9.046875 11.21875 8.75 13.5 C8.66234375 14.2528125 8.5746875 15.005625 8.484375 15.78125 C7.97595134 18.1101584 7.15218067 19.92229716 6 22 C6.66 22.99 7.32 23.98 8 25 C7.625 27.1875 7.625 27.1875 7 29 C5.35 28.67 3.7 28.34 2 28 C1.67 27.01 1.34 26.02 1 25 C0.34773438 25.05800781 -0.30453125 25.11601562 -0.9765625 25.17578125 C-9.00814332 25.59039088 -9.00814332 25.59039088 -12.5 22.75 C-15.80640712 19.11295217 -16.83222901 17.50993888 -17.375 12.625 C-16.83118059 7.368079 -14.76755969 4.47296641 -10.75 1.125 C-7.07915909 -0.37670765 -3.86108732 -0.78976786 0 0 Z M-13 6 C-14.86426763 9.1353592 -15.00401532 10.88556349 -14.875 14.5625 C-13.92078686 18.31119446 -12.99526478 19.64009442 -10 22 C-6.25650712 23.87174644 -1.6565524 23.44771687 2.3125 22.375 C4.94016354 20.23394082 5.86138489 18.17613688 7 15 C6.90725608 9.71359656 5.74060846 6.74060846 2 3 C-4.12852709 0.95715764 -8.467417 1.20841226 -13 6 Z " fill="#746F68" transform="translate(264,145)"/>
<path d="M0 0 C2.5625 1.5 2.5625 1.5 4 3 C4.33 2.01 4.66 1.02 5 0 C5.66 0 6.32 0 7 0 C7.0871142 4.08319884 7.14043048 8.16615864 7.1875 12.25 C7.21263672 13.40886719 7.23777344 14.56773437 7.26367188 15.76171875 C7.27333984 16.87675781 7.28300781 17.99179688 7.29296875 19.140625 C7.3086792 20.16704102 7.32438965 21.19345703 7.34057617 22.25097656 C6.9475471 25.42338326 6.29394935 26.79011524 4 29 C0.3125 29.25 0.3125 29.25 -3 29 C-3 28.67 -3 28.34 -3 28 C-0.69 27.34 1.62 26.68 4 26 C4 23.36 4 20.72 4 18 C3.59394531 18.47566406 3.18789063 18.95132813 2.76953125 19.44140625 C-0.32828106 22.16994292 -3.99048772 22.23263382 -8 22 C-11.24288049 20.40804049 -13.20045028 19.05395191 -15.375 16.1875 C-16.31707395 12.89024117 -16.41260656 10.4187401 -16 7 C-11.92772808 0.21792632 -7.46683283 -0.79575483 0 0 Z M-13 5 C-14.61707958 8.23415916 -14.56822376 11.50375265 -14 15 C-11.97314048 18.13836313 -10.54702808 19.65870267 -6.83984375 20.4765625 C-2.64506019 20.74267565 -0.50834457 20.33198013 3.0625 18 C5.55207989 14.14516662 5.9377494 11.46332646 5 7 C3.74612994 3.91182268 3.74612994 3.91182268 1 2 C-4.79460588 0.16215858 -8.72378041 0.32288482 -13 5 Z " fill="#545454" transform="translate(448,147)"/>
<path d="M0 0 C9.9 0 19.8 0 30 0 C30 0.33 30 0.66 30 1 C20.76 1 11.52 1 2 1 C2 5.29 2 9.58 2 14 C6.62 14 11.24 14 16 14 C16 14.66 16 15.32 16 16 C11.38 16 6.76 16 2 16 C2 20.29 2 24.58 2 29 C11.24 29 20.48 29 30 29 C30 29.33 30 29.66 30 30 C20.1 30 10.2 30 0 30 C0 20.1 0 10.2 0 0 Z " fill="#535353" transform="translate(177,139)"/>
<path d="M0 0 C0.66 0 1.32 0 2 0 C2.66 0.99 3.32 1.98 4 3 C5.32 2.67 6.64 2.34 8 2 C9.05090762 5.97009545 9.06172135 9.01854493 8 13 C5 15 5 15 2 15 C2.33 13.35 2.66 11.7 3 10 C2.34 9.67 1.68 9.34 1 9 C1 11.31 1 13.62 1 16 C-4.66153846 14.52307692 -4.66153846 14.52307692 -6.375 11.875 C-6.58125 11.25625 -6.7875 10.6375 -7 10 C-6.34 10 -5.68 10 -5 10 C-5 9.34 -5 8.68 -5 8 C-4.01 7.34 -3.02 6.68 -2 6 C-0.78715124 2.94570927 -0.78715124 2.94570927 0 0 Z " fill="#B48F6D" transform="translate(259,150)"/>
<path d="M0 0 C9.9 0 19.8 0 30 0 C30.495 1.485 30.495 1.485 31 3 C16.48 3 1.96 3 -13 3 C-13 2.67 -13 2.34 -13 2 C-8.71 2 -4.42 2 0 2 C0 1.34 0 0.68 0 0 Z " fill="#D5D5D5" transform="translate(576,96)"/>
<path d="M0 0 C0.66 0 1.32 0 2 0 C2.33 0.99 2.66 1.98 3 3 C3.474375 2.505 3.94875 2.01 4.4375 1.5 C8.23119616 -0.72070019 11.70329773 -0.56777851 16 0 C18.85991202 1.21698384 20.38585872 2.0926972 22.12109375 4.65625 C23.34339145 7.91571054 23.18922035 10.78210093 23.125 14.25 C23.10695312 15.51328125 23.08890625 16.7765625 23.0703125 18.078125 C23.04710937 19.04234375 23.02390625 20.0065625 23 21 C22.67 21 22.34 21 22 21 C21.95101562 20.10796875 21.90203125 19.2159375 21.8515625 18.296875 C21.77679688 17.12640625 21.70203125 15.9559375 21.625 14.75 C21.55539063 13.58984375 21.48578125 12.4296875 21.4140625 11.234375 C21.03458044 8.27011893 20.59901071 6.4834452 19 4 C15.56199608 1.45333043 12.14893725 1.49048139 8 2 C4.39196885 4.75349745 3.13860579 6.26102438 2.29296875 10.76953125 C2.23384018 12.11634866 2.19911013 13.46443526 2.1875 14.8125 C2.16236328 15.50537109 2.13722656 16.19824219 2.11132812 16.91210938 C2.05286737 18.60747122 2.02346953 20.30379287 2 22 C1.34 22 0.68 22 0 22 C0 14.74 0 7.48 0 0 Z " fill="#585858" transform="translate(211,147)"/>
<path d="M0 0 C0.495 0.99 0.495 0.99 1 2 C-0.43160268 3.00842453 -1.87051453 4.00647891 -3.3125 5 C-4.11300781 5.556875 -4.91351563 6.11375 -5.73828125 6.6875 C-8.47436857 8.27528124 -10.06086106 8.22128134 -13.10546875 7.50390625 C-17.18306038 6.79404212 -21.18285774 6.89512798 -25.3125 6.9375 C-26.56643555 6.94426758 -26.56643555 6.94426758 -27.84570312 6.95117188 C-29.89716649 6.96289452 -31.94859273 6.98082797 -34 7 C-34 6.34 -34 5.68 -34 5 C-33.09459473 4.98598145 -33.09459473 4.98598145 -32.17089844 4.97167969 C-15.6641185 4.74193911 -15.6641185 4.74193911 0 0 Z " fill="#CCF1F2" transform="translate(324,136)"/>
<path d="M0 0 C6.51227496 3.96399345 6.51227496 3.96399345 8 8 C8.046875 10.21875 8.046875 10.21875 7.75 12.5 C7.61851562 13.62921875 7.61851562 13.62921875 7.484375 14.78125 C6.97595134 17.1101584 6.15218067 18.92229716 5 21 C5.66 21.99 6.32 22.98 7 24 C6.67 24.99 6.34 25.98 6 27 C4.125 26.8125 4.125 26.8125 2 26 C0.75 23.4375 0.75 23.4375 0 21 C0.639375 20.505 1.27875 20.01 1.9375 19.5 C4.69355179 16.15933117 5.37278079 13.30768912 5 9 C3.28342914 5.80362668 1.55112126 3.55112126 -1 1 C-0.67 0.67 -0.34 0.34 0 0 Z " fill="#7D746D" transform="translate(265,146)"/>
<path d="M0 0 C-0.66 0.66 -1.32 1.32 -2 2 C-2.66 1.67 -3.32 1.34 -4 1 C-4.33 3.31 -4.66 5.62 -5 8 C-6.32 8.33 -7.64 8.66 -9 9 C-9 9.66 -9 10.32 -9 11 C-9.99 11 -10.98 11 -12 11 C-12.48915663 4.64096386 -12.48915663 4.64096386 -10.1875 1.625 C-6.49663253 -1.11678726 -4.31052761 -1.04850672 0 0 Z " fill="#693A0C" transform="translate(263,149)"/>
<path d="M0 0 C2.125 0.375 2.125 0.375 4 1 C4.48842105 8.32631579 4.48842105 8.32631579 2.1875 11.5 C0 13 0 13 -3 13 C-2.88610125 11.20759337 -2.75852313 9.41605165 -2.625 7.625 C-2.55539062 6.62726563 -2.48578125 5.62953125 -2.4140625 4.6015625 C-2 2 -2 2 0 0 Z " fill="#7A471E" transform="translate(264,152)"/>
<path d="M0 0 C0.33 0.66 0.66 1.32 1 2 C0.649375 2.9075 0.29875 3.815 -0.0625 4.75 C-1.18025514 8.62488448 -0.5601175 10.35972583 1 14 C-0.32 12.68 -1.64 11.36 -3 10 C-3.99 11.98 -4.98 13.96 -6 16 C-7.32 15.67 -8.64 15.34 -10 15 C-10.33 15.99 -10.66 16.98 -11 18 C-12.32 16.02 -13.64 14.04 -15 12 C-12.525 12.495 -12.525 12.495 -10 13 C-10.515625 12.2575 -11.03125 11.515 -11.5625 10.75 C-13 8 -13 8 -12 4 C-10.35 6.97 -8.7 9.94 -7 13 C-3.535 6.565 -3.535 6.565 0 0 Z " fill="#676868" transform="translate(280,94)"/>
<path d="M0 0 C0 0.66 0 1.32 0 2 C0.66 2.33 1.32 2.66 2 3 C1.39671875 3.03738281 0.7934375 3.07476563 0.171875 3.11328125 C-4.4473289 3.49324802 -7.46934101 3.75179373 -11 7 C-11.66 7 -12.32 7 -13 7 C-13.33 10.3 -13.66 13.6 -14 17 C-14.66 16.34 -15.32 15.68 -16 15 C-15.41719745 5.96656051 -15.41719745 5.96656051 -13 3 C-8.52377467 0.58972482 -5.07109342 -0.37105562 0 0 Z " fill="#FCF0CF" transform="translate(346,17)"/>
<path d="M0 0 C3.01794747 2.11256323 4.77465392 4.52818611 6 8 C6.125 11.25 6.125 11.25 6 14 C4.35173889 11.03312999 3.55728913 8.34373475 3 5 C2.34 5 1.68 5 1 5 C1 4.34 1 3.68 1 3 C-0.65 3 -2.3 3 -4 3 C-4 2.34 -4 1.68 -4 1 C-5.32 1 -6.64 1 -8 1 C-8 1.66 -8 2.32 -8 3 C-10.64 3.99 -13.28 4.98 -16 6 C-15 3 -15 3 -13.0625 1.3125 C-8.69315393 -0.56007689 -4.68629083 -0.72157778 0 0 Z " fill="#EEB268" transform="translate(260,20)"/>
<path d="M0 0 C0.33 0.66 0.66 1.32 1 2 C-0.43160268 3.00842453 -1.87051453 4.00647891 -3.3125 5 C-4.51326172 5.8353125 -4.51326172 5.8353125 -5.73828125 6.6875 C-8 8 -8 8 -11 8 C-11.33 6.68 -11.66 5.36 -12 4 C-8.04 2.68 -4.08 1.36 0 0 Z " fill="#EBF7F9" transform="translate(324,136)"/>
<path d="M0 0 C5.94 1.485 5.94 1.485 12 3 C10.68 3.33 9.36 3.66 8 4 C7.34 4.66 6.68 5.32 6 6 C2.875 6.125 2.875 6.125 0 6 C0.66 4.68 1.32 3.36 2 2 C1.34 2 0.68 2 0 2 C0 1.34 0 0.68 0 0 Z " fill="#E0F4F5" transform="translate(368,82)"/>
<path d="M0 0 C0.66 0 1.32 0 2 0 C2.66 2.97 3.32 5.94 4 9 C0 8 0 8 -1.375 6.1875 C-2 4 -2 4 -1.125 1.75 C-0.75375 1.1725 -0.3825 0.595 0 0 Z " fill="#C1A78C" transform="translate(259,150)"/>
<path d="M0 0 C0.66 0 1.32 0 2 0 C2 5.28 2 10.56 2 16 C1.01 15.67 0.02 15.34 -1 15 C-0.67 10.05 -0.34 5.1 0 0 Z " fill="#ADADAD" transform="translate(294,94)"/>
<path d="M0 0 C3.96 0 7.92 0 12 0 C9.215707 2.784293 6.113137 2.94910069 2.375 3.625 C1.66859375 3.7590625 0.9621875 3.893125 0.234375 4.03125 C-1.50911918 4.36110025 -3.25440389 4.68146056 -5 5 C-5 4.34 -5 3.68 -5 3 C-4.360625 2.87625 -3.72125 2.7525 -3.0625 2.625 C-2.0415625 2.315625 -2.0415625 2.315625 -1 2 C-0.67 1.34 -0.34 0.68 0 0 Z " fill="#D7F5F7" transform="translate(244,60)"/>
<path d="M0 0 C0.639375 0.804375 1.27875 1.60875 1.9375 2.4375 C6.33854543 6.1200074 10.44654314 6 16 6 C16 6.66 16 7.32 16 8 C10.84179271 9.5871407 7.54525793 8.50640733 2.859375 6.2578125 C1 5 1 5 -0.0625 2.25 C-0.041875 1.5075 -0.02125 0.765 0 0 Z " fill="#FEF8E0" transform="translate(332,36)"/>
<path d="M0 0 C0.66 0.33 1.32 0.66 2 1 C1.360625 1.78375 0.72125 2.5675 0.0625 3.375 C-2.96196631 7.22432076 -3.19463752 9.13406201 -3 14 C-2.56058477 16.26566343 -2.56058477 16.26566343 -2 18 C-4.08986233 16.29920778 -4.92369885 15.37514733 -5.46875 12.6953125 C-5.55178128 5.86599006 -5.55178128 5.86599006 -3.875 3.234375 C-2.5 1.875 -2.5 1.875 0 0 Z " fill="#EBAF63" transform="translate(337,21)"/>
<path d="M0 0 C0.66 0.66 1.32 1.32 2 2 C1.77212614 9.06408952 1.77212614 9.06408952 -1.0625 12.5 C-1.701875 12.995 -2.34125 13.49 -3 14 C-3.66 13.67 -4.32 13.34 -5 13 C-5 12.34 -5 11.68 -5 11 C-3.35 10.34 -1.7 9.68 0 9 C0 6.03 0 3.06 0 0 Z " fill="#4B311D" transform="translate(269,153)"/>
<path d="M0 0 C0.33 0 0.66 0 1 0 C1.19392201 5.52677733 0.7479503 9.75614911 -1 15 C-1.99 14.67 -2.98 14.34 -4 14 C-3.52188823 12.22888156 -3.0424722 10.45811517 -2.5625 8.6875 C-2.29566406 7.70136719 -2.02882813 6.71523437 -1.75390625 5.69921875 C-1.21920575 3.78482474 -0.62855462 1.88566385 0 0 Z " fill="#CEEFF4" transform="translate(360,85)"/>
<path d="M0 0 C5.28 0.66 10.56 1.32 16 2 C16 2.66 16 3.32 16 4 C16.66 4.33 17.32 4.66 18 5 C11.69632197 4.41632611 6.01339937 2.95928381 0 1 C0 0.67 0 0.34 0 0 Z " fill="#C8F0F0" transform="translate(360,64)"/>
<path d="M0 0 C2.82901615 3.19801825 3.73357234 5.73715752 4 10 C3.0625 12.375 3.0625 12.375 2 14 C0.68 12.02 -0.64 10.04 -2 8 C0.475 8.495 0.475 8.495 3 9 C2.505 8.2575 2.01 7.515 1.5 6.75 C0 4 0 4 0 0 Z " fill="#A6B3B7" transform="translate(267,98)"/>
<path d="M0 0 C0.33 0 0.66 0 1 0 C1 1.65 1 3.3 1 5 C2.98 5 4.96 5 7 5 C7 5.33 7 5.66 7 6 C5.02 6 3.04 6 1 6 C1 10.29 1 14.58 1 19 C0.67 19 0.34 19 0 19 C0 14.71 0 10.42 0 6 C-0.66 5.67 -1.32 5.34 -2 5 C-1.34 5 -0.68 5 0 5 C0 3.35 0 1.7 0 0 Z " fill="#5A5A5A" transform="translate(303,89)"/>
<path d="M0 0 C0.33 0 0.66 0 1 0 C1 2.64 1 5.28 1 8 C1.99 8.33 2.98 8.66 4 9 C2.35 10.65 0.7 12.3 -1 14 C-1 10.83772601 -0.82985212 7.88359512 -0.5 4.75 C-0.4071875 3.85796875 -0.314375 2.9659375 -0.21875 2.046875 C-0.1465625 1.37140625 -0.074375 0.6959375 0 0 Z " fill="#DAECED" transform="translate(330,100)"/>
<path d="M0 0 C0 0.66 0 1.32 0 2 C0.66 2.33 1.32 2.66 2 3 C-1.96 3 -5.92 3 -10 3 C-5.78492722 -0.16130459 -4.93928888 -0.3367697 0 0 Z " fill="#FEF4DF" transform="translate(346,17)"/>
<path d="M0 0 C2.46278801 2.46278801 2.99771255 4.70676982 4 8 C2.68 9.32 1.36 10.64 0 12 C0 8.04 0 4.08 0 0 Z " fill="#F5F5F5" transform="translate(430,156)"/>
<path d="M0 0 C0.99 0 1.98 0 3 0 C3.66 1.65 4.32 3.3 5 5 C4.360625 5.12375 3.72125 5.2475 3.0625 5.375 C2.0415625 5.684375 2.0415625 5.684375 1 6 C0.67 6.66 0.34 7.32 0 8 C0 7.01 0 6.02 0 5 C-0.66 4.67 -1.32 4.34 -2 4 C-1.34 2.68 -0.68 1.36 0 0 Z " fill="#ECECEC" transform="translate(339,160)"/>
<path d="M0 0 C0 0.99 0 1.98 0 3 C0.99 2.67 1.98 2.34 3 2 C2.67 3.32 2.34 4.64 2 6 C0.35 6.33 -1.3 6.66 -3 7 C-2.25 2.25 -2.25 2.25 0 0 Z " fill="#CDAB88" transform="translate(264,158)"/>
<path d="M0 0 C-0.66 0.66 -1.32 1.32 -2 2 C-2.66 1.67 -3.32 1.34 -4 1 C-4 1.66 -4 2.32 -4 3 C-5.65 2.67 -7.3 2.34 -9 2 C-6.98558063 -2.02883874 -3.72407517 -0.90585612 0 0 Z " fill="#734521" transform="translate(263,149)"/>
<path d="M0 0 C-0.33 0.66 -0.66 1.32 -1 2 C-2.65 2 -4.3 2 -6 2 C-6 3.32 -6 4.64 -6 6 C-6.66 6 -7.32 6 -8 6 C-8.33 4.35 -8.66 2.7 -9 1 C-5.92677456 0.08941469 -3.19902639 -0.08886184 0 0 Z " fill="#167E88" transform="translate(223,71)"/>
<path d="M0 0 C1.5 1.25 1.5 1.25 3 3 C3 4.32 3 5.64 3 7 C1.0625 6.25 1.0625 6.25 -1 5 C-1.75 2.875 -1.75 2.875 -2 1 C-1.34 0.67 -0.68 0.34 0 0 Z " fill="#EBEDE8" transform="translate(267,166)"/>
<path d="M0 0 C0.66 0.66 1.32 1.32 2 2 C1.34 3.32 0.68 4.64 0 6 C0.99 7.485 0.99 7.485 2 9 C1.67 9.99 1.34 10.98 1 12 C-2.06584362 7.70781893 -2.06584362 7.70781893 -1.75 4.3125 C-1 2 -1 2 0 0 Z " fill="#72706B" transform="translate(270,161)"/>
<path d="M0 0 C-1.70828921 2.10633718 -2.52148416 2.93801608 -5.26171875 3.29296875 C-6.06222656 3.25816406 -6.86273438 3.22335938 -7.6875 3.1875 C-8.49574219 3.16042969 -9.30398438 3.13335937 -10.13671875 3.10546875 C-10.75160156 3.07066406 -11.36648438 3.03585938 -12 3 C-3.11538462 -1.55769231 -3.11538462 -1.55769231 0 0 Z " fill="#318E98" transform="translate(318,124)"/>
<path d="M0 0 C0.33 1.32 0.66 2.64 1 4 C1.63654342 5.3479743 2.29605388 6.68596724 3 8 C1.35 8.66 -0.3 9.32 -2 10 C-1.34 6.7 -0.68 3.4 0 0 Z " fill="#B8DCE1" transform="translate(387,76)"/>
<path d="M0 0 C1.98 0.99 1.98 0.99 4 2 C3.835 2.78375 3.67 3.5675 3.5 4.375 C2.9376293 6.88208039 2.9376293 6.88208039 3 9 C2.01 8.67 1.02 8.34 0 8 C0 5.36 0 2.72 0 0 Z " fill="#714925" transform="translate(259,158)"/>
<path d="M0 0 C-3.28804981 2.91227269 -5.59885603 4.49701212 -10 5 C-10 4.34 -10 3.68 -10 3 C-6.58168085 0.4606772 -4.24223102 -0.3636198 0 0 Z " fill="#258196" transform="translate(329,133)"/>
<path d="M0 0 C0 0.99 0 1.98 0 3 C-2.66666667 4.33333333 -5.33333333 5.66666667 -8 7 C-6.47663111 3.31852519 -4.31953005 0 0 0 Z " fill="#EDF1E6" transform="translate(323,141)"/>
<path d="M0 0 C6.52307692 1.47692308 6.52307692 1.47692308 8.9375 4.125 C9.288125 4.74375 9.63875 5.3625 10 6 C5.56909529 4.79157144 3.01887244 3.48331435 0 0 Z " fill="#C9EEF4" transform="translate(277,118)"/>
<path d="M0 0 C0.99 0 1.98 0 3 0 C2.25 6.625 2.25 6.625 0 10 C0 6.7 0 3.4 0 0 Z " fill="#15798F" transform="translate(385,72)"/>
<path d="M0 0 C0.33 0.66 0.66 1.32 1 2 C-1.25 3.625 -1.25 3.625 -4 5 C-6.3125 4.1875 -6.3125 4.1875 -8 3 C-5.36 2.01 -2.72 1.02 0 0 Z " fill="#D2F2F6" transform="translate(324,136)"/>
<path d="M0 0 C3 1 3 1 4.16796875 2.84765625 C4.50441406 3.57855469 4.84085937 4.30945313 5.1875 5.0625 C5.53167969 5.79597656 5.87585938 6.52945313 6.23046875 7.28515625 C6.48441406 7.85105469 6.73835938 8.41695312 7 9 C6.34 9 5.68 9 5 9 C3.98133771 7.34467377 2.98189187 5.67739862 2 4 C1.34 3.67 0.68 3.34 0 3 C0 2.01 0 1.02 0 0 Z " fill="#1D818F" transform="translate(256,95)"/>
<path d="M0 0 C0.99 0.495 0.99 0.495 2 1 C2 1.99 2 2.98 2 4 C2.99 4.33 3.98 4.66 5 5 C4.67 6.32 4.34 7.64 4 9 C1.49701566 6.06171403 0.53069061 3.82097239 0 0 Z " fill="#1B7E8F" transform="translate(239,88)"/>
<path d="M0 0 C0.66 0 1.32 0 2 0 C2 0.66 2 1.32 2 2 C1.34 2 0.68 2 0 2 C0 2.99 0 3.98 0 5 C-1.98 5.33 -3.96 5.66 -6 6 C-4 4 -2 2 0 0 Z " fill="#D0F0F6" transform="translate(335,128)"/>
<path d="M0 0 C2.97 0.33 5.94 0.66 9 1 C4.82091936 3.08954032 4.19589427 3.16552619 0 2 C0 1.34 0 0.68 0 0 Z " fill="#E4F7FA" transform="translate(258,56)"/>
<path d="M0 0 C1.65 0 3.3 0 5 0 C5 0.66 5 1.32 5 2 C6.98 2 8.96 2 11 2 C11 2.33 11 2.66 11 3 C3.49230769 3.36923077 3.49230769 3.36923077 1 1.5 C0.67 1.005 0.34 0.51 0 0 Z " fill="#EDC691" transform="translate(247,40)"/>
</svg>
